<svg xmlns="http://www.w3.org/2000/svg" id="Layer_1" version="1.1" viewBox="55.58 62.08 343.98 131.73">
  <!-- Generator: Adobe Illustrator 29.3.1, SVG Export Plug-In . SVG Version: 2.1.0 Build 151)  -->
  <defs>
    <style>
      .st0 {
        fill: #f58e1d;
      }

      .st1 {
        fill: #fd5701;
      }
    </style>
  </defs>
  <g>
    <path d="M168.23,114.77c-.09-.22-.19-.44-.29-.65-.1-.22-.22-.42-.34-.63-.13-.21-.25-.41-.4-.61-.14-.2-.29-.39-.45-.58-.16-.19-.33-.38-.5-.55-.97-.98-2.2-1.79-3.72-2.36-.36-.13-.72-.27-1.09-.38-.57-.18-1.15-.31-1.73-.43-.26-.05-.51-.09-.76-.13-.29-.05-.58-.09-.87-.13-.27-.03-.54-.06-.81-.09-.43-.03-.85-.06-1.27-.08-.15,0-.29,0-.43-.01-.3-.01-.6-.01-.9-.01h0c-2.49,0-4.98,0-7.47,0h-4.48c-1.07,0-2.11-.15-3.09-.61-.05-.03-.11-.06-.16-.09-.16-.09-.32-.18-.46-.29-.09-.07-.19-.15-.27-.22-.17-.16-.32-.34-.44-.53-.06-.1-.12-.2-.17-.31-.1-.21-.17-.45-.21-.69-.19-1.08-.09-2.11.41-3.02.08-.14.17-.28.26-.41.1-.13.21-.27.33-.4.07-.07.14-.14.21-.21.22-.21.45-.41.68-.6.16-.13.32-.26.47-.38h0c.16-.13.31-.25.47-.38h0c.45-.38.93-.38,1.47-.19,3.81,1.34,7.72,1.5,11.67.97.5-.07.98-.15,1.46-.26.32-.07.64-.14.95-.22h0c.32-.09.62-.19.93-.29,1.07-.36,2.1-.83,3.07-1.43.28-.17.56-.35.82-.55.28-.2.55-.41.81-.63.25-.21.5-.43.73-.65l.34-.34c.1-.11.21-.23.32-.35.38-.45.73-.9,1.03-1.38.12-.19.23-.39.33-.59.05-.1.1-.2.15-.3.05-.1.1-.2.14-.3.08-.21.16-.41.24-.63.03-.1.07-.22.1-.32.05-.15.09-.29.13-.44.02-.1.05-.2.07-.3.02-.1.04-.2.06-.3.12-.6.17-1.23.17-1.88,0-.29-.01-.58-.03-.88-.01-.15-.03-.3-.05-.45,0-.09-.02-.18-.03-.26v-.02c0-.06,0-.12-.02-.17-.06-.36-.13-.72-.22-1.06-.03-.12-.06-.23-.1-.34-.09-.3-.19-.59-.31-.87-.46-1.14-1.14-2.16-2.01-3.06-.05-.06-.11-.11-.16-.16-.02-.03-.04-.04-.06-.06-.03-.03-.05-.05-.07-.07-.02-.02-.03-.03-.03-.03,0,0-.17-.17-.35-.32-.04-.04-.09-.08-.14-.12-.07-.07-.15-.13-.23-.2l-1.94-1.34c1.08-.57,2.1-1.25,3.02-2.09.83-.75,1.53-1.6,2-2.62.36-.77.54-1.58.51-2.48h-4.82c0,.3-.01.6,0,.9.07,1.27-.03,2.5-.42,3.71-.28.86-.71,1.57-1.26,2.16-.57-.21-1.13-.41-1.69-.59-.13-.04-.26-.09-.39-.13-.14-.04-.27-.08-.39-.12,0,0-.02,0-.03,0-.13-.04-.26-.07-.39-.11-.11-.03-.2-.06-.26-.07-.03,0-.06,0-.08-.02,0,0-.01,0-.02,0h0c-.2-.06-.38-.09-.54-.13-.05-.01-.1-.02-.14-.03h0c-.45-.1-.91-.19-1.37-.25h0c-.46-.07-.91-.12-1.37-.16-1.59-.14-3.2-.12-4.8.06-.3.03-.6.07-.9.11-.55.08-1.1.18-1.63.29-.6.13-1.19.29-1.77.48-.45.15-.9.32-1.34.51-.44.19-.87.39-1.29.62-.58.32-1.14.68-1.68,1.08-.25.18-.48.38-.73.58-.23.2-.45.41-.67.61-.06.07-.13.14-.2.21-.34.35-.65.7-.93,1.08-.1.14-.22.29-.32.45-.21.3-.39.61-.56.93-.08.16-.16.32-.23.48-.11.24-.21.48-.3.74-.09.25-.16.5-.23.76-.3,1.15-.38,2.37-.22,3.66.04.43.12.86.22,1.31.01.04.02.09.04.13.02.1.04.19.07.29.02.08.04.15.06.22.04.14.08.27.13.41.04.12.08.23.13.34.04.1.08.2.13.31.04.11.1.22.14.34.08.16.16.31.23.46.08.16.17.3.26.45.06.11.13.22.21.32.05.08.1.16.16.24.16.24.35.47.54.69.22.26.46.51.71.76.13.13.25.25.38.36.21.18.43.35.65.52.34.27.7.52,1.08.75.07.05.15.09.22.13.22.13.45.27.71.42-1.08.69-2.11,1.28-3.07,1.98-.61.45-1.17.93-1.67,1.46-.17.18-.33.36-.48.55-.15.19-.3.38-.43.58-.21.3-.4.61-.57.94-.12.22-.23.45-.33.67-.05.12-.1.24-.14.35-.04.11-.08.22-.12.32-.16.46-.27.93-.32,1.38-.01.1-.03.2-.03.3,0,.03,0,.07,0,.12,0,.13-.02.25-.02.38,0,1.03.26,2,.78,2.85.13.21.27.41.43.61l.16.19c.14.16.28.3.43.45h0c.25.24.54.46.85.67.24.16.51.31.79.45.62.3,1.29.53,1.96.73.25.08.52.15.77.22.09.03.17.05.25.07.26.08.54.13.81.18.19.03.4.06.6.08.26.04.52.07.78.12-.02,0-.04.03-.06.04-.02.01-.05.03-.06.04-.18.1-.37.16-.55.22-.03.01-.06.02-.09.03-.02.01-.04.02-.07.02-.04.02-.08.03-.11.04-.04.01-.08.02-.12.03-.34.11-.67.22-1,.33-.68.21-1.34.43-2,.67-.19.07-.38.14-.55.22-.07.03-.14.05-.21.08-.07.03-.15.06-.22.09-.25.1-.49.22-.73.35-.8.43-1.51.97-2.14,1.63-.19.19-.37.4-.54.61-1.29,1.58-1.69,3.36-1.11,5.33.32,1.07.88,1.95,1.63,2.69.09.09.18.17.27.25.27.24.55.48.86.69.04.02.07.04.1.06.05.04.11.08.16.11,1.15.76,2.42,1.3,3.73,1.72.2.06.4.12.61.18.26.08.53.15.8.21.26.06.53.13.8.19,2.32.49,4.68.68,7.07.74,2.93.07,5.81-.13,8.62-.83.57-.14,1.13-.31,1.7-.48.19-.06.37-.13.55-.19.37-.13.73-.27,1.08-.41.35-.15.7-.3,1.05-.47,1.54-.73,2.96-1.67,4.21-2.88.28-.26.55-.54.81-.84,2.48-2.81,3.18-7.03,1.75-10.53ZM143.01,84.64c.13-.67.42-1.34.73-1.97,1.28-2.62,3.42-3.95,6.33-3.97,2.91-.02,5.04,1.32,6.37,3.91.71,1.39,1.07,2.9,1.23,4.43.28,2.56.21,5.11-.51,7.61-.16.57-.38,1.13-.64,1.67-1.21,2.54-3.21,3.94-6.05,4.02-2.96.1-5.14-1.21-6.56-3.78-.74-1.34-1.12-2.8-1.31-4.3-.12-.93-.14-1.88-.2-2.83-.04-.01-.07-.02-.11-.03.25-1.59.44-3.19.74-4.76ZM164.49,125.75c-1.41,1.66-3.21,2.72-5.22,3.47-2.78,1.02-5.67,1.39-7.8,1.36-3.26,0-5.67-.19-8.02-.93-1.67-.52-3.18-1.3-4.43-2.55-2.52-2.52-2.92-8.54,2-10.9,1.45-.7,2.99-1.08,4.59-1.08,4.5-.04,9.01-.03,13.52.01,1.3.02,2.59.26,3.82.77,2.06.86,3.11,2.41,3.29,4.62.16,2.01-.46,3.73-1.75,5.24Z"/>
    <path d="M206.33,107.32s-.07.01-.1.02h0c-.11.02-.21.02-.3.04-.03,0-.06,0-.09,0-.05,0-.1.03-.14.04-.03.01-.05.03-.06.04-.04.03-.07.07-.1.12-.02.02-.03.04-.05.06-.03.04-.06.08-.08.13-.04.06-.08.14-.12.21-.03.06-.07.12-.11.18h0c-1.21,1.9-2.68,3.51-4.68,4.62-2.91,1.61-6.05,1.76-9.24,1.34-.25-.03-.5-.07-.75-.13-.01,0-.03,0-.04,0,0,0-.01,0-.03,0-.1-.03-.2-.05-.31-.08h-.01c-.06-.01-.13-.03-.19-.05-.13-.04-.27-.08-.41-.13-.13-.04-.27-.09-.4-.14-.15-.05-.3-.11-.45-.18-.21-.09-.41-.18-.6-.29-.2-.1-.4-.21-.59-.32-.19-.12-.38-.24-.57-.37-.18-.13-.37-.26-.55-.4-2.23-1.74-3.47-4.11-4.22-6.76-.86-3.01-.97-6.09-.87-9.19h0s0-.05.01-.07c0,0,0-.02.01-.03.02-.03.04-.07.06-.11,0-.01.01-.02.02-.03.02-.03.04-.07.06-.11h25.58c-.03-.14-.06-.29-.08-.42-.02-.13-.05-.28-.07-.41-.04-.23-.08-.46-.12-.69-.04-.23-.08-.45-.12-.67-.06-.31-.11-.62-.18-.92-.03-.16-.06-.33-.1-.49-.03-.17-.06-.33-.1-.49-.07-.31-.15-.62-.24-.92-.06-.23-.13-.45-.2-.68-.07-.23-.14-.45-.22-.67-.06-.19-.13-.38-.2-.56-.04-.11-.09-.22-.13-.32-.06-.15-.12-.29-.18-.44-.13-.29-.26-.57-.39-.86-.14-.29-.29-.57-.44-.84-.3-.56-.63-1.1-.99-1.63-.07-.1-.14-.21-.22-.31,0,0-.01-.01-.02-.03h0s-.02-.02-.02-.03c0,0,0-.01-.02-.02-.07-.11-.15-.22-.23-.33-.09-.11-.17-.22-.26-.34-.09-.11-.18-.22-.26-.33-.09-.11-.18-.21-.27-.32-.09-.1-.19-.2-.28-.31-.09-.11-.18-.2-.28-.3-.16-.16-.32-.31-.48-.46-.18-.17-.37-.34-.56-.5-.12-.11-.25-.21-.38-.32-.17-.13-.33-.26-.5-.37-.16-.13-.34-.24-.51-.35-.13-.09-.27-.17-.41-.25-.07-.04-.14-.08-.21-.13-.15-.09-.31-.17-.46-.25,0,0-.01,0-.03-.02-.17-.09-.35-.18-.53-.26-.19-.09-.38-.17-.57-.26-.19-.08-.39-.16-.58-.23-.1-.04-.2-.07-.3-.1-.1-.03-.2-.06-.3-.1-.21-.07-.41-.13-.62-.18-.2-.06-.41-.1-.63-.16-.22-.04-.43-.09-.65-.13-.01,0-.03,0-.05,0-.2-.03-.41-.07-.61-.09-.23-.03-.45-.06-.68-.08-.67-.06-1.33-.09-1.97-.09-.2,0-.4,0-.6.01-.15,0-.31,0-.46.02-.11,0-.22.02-.33.03-.13,0-.26.02-.38.03-.19.01-.37.03-.55.06-.1,0-.19.02-.29.04-.16.02-.32.05-.48.08-.13.02-.25.04-.37.07-.16.03-.32.07-.47.1-.11.03-.22.05-.33.08-.28.07-.55.15-.83.23-.13.04-.27.09-.4.13-.16.05-.31.1-.46.16-.4.16-.79.32-1.17.51-.09.03-.17.07-.25.12-.08.04-.16.08-.25.13-.16.08-.32.17-.48.26-.16.09-.32.19-.48.28-.28.17-.55.35-.82.54-.1.07-.2.14-.3.22-.1.07-.2.16-.3.23-.2.15-.39.31-.58.47-.19.16-.38.33-.57.51-.19.17-.38.35-.56.53-.18.19-.36.37-.53.56t-.01,0s0,.02-.01.02c-.17.19-.34.37-.51.57h0c-.09.1-.17.2-.25.3-.08.1-.16.2-.24.31-.01,0-.02.02-.03.03-.16.21-.32.42-.48.63h0c-4.01,5.48-4.93,11.67-3.28,18.15,1.27,5.03,4.23,8.89,8.98,11.26,3.92,1.96,8.05,2.51,12.33,1.86.17-.03.34-.06.51-.09.15-.03.29-.05.43-.08.04,0,.08-.02.13-.03.14-.03.28-.06.42-.1.13-.03.24-.06.37-.09.11-.03.22-.06.34-.09.08-.02.16-.05.23-.07.11-.03.22-.06.32-.1.06-.02.13-.04.19-.06.03,0,.05-.01.07-.03.11-.03.22-.07.33-.11.14-.06.29-.11.44-.17.29-.12.57-.25.85-.38.1-.05.2-.1.31-.15.15-.07.29-.16.44-.23.16-.09.32-.18.47-.28.27-.16.54-.34.79-.52.1-.07.19-.14.29-.21.11-.08.22-.17.33-.26.15-.12.29-.23.43-.35,0,0,.01-.02.02-.02.1-.08.2-.17.3-.26.23-.22.45-.44.67-.67.42-.45.83-.92,1.2-1.43.19-.25.37-.52.54-.79.12-.19.24-.38.35-.57.1-.17.2-.35.3-.52.06-.12.13-.23.19-.35,0,0,0-.01,0-.02.13-.23.25-.48.36-.72.01-.03.02-.06.03-.09,0-.02,0-.03.01-.06,0-.03,0-.07.01-.13,0-.07.02-.16.03-.26h0ZM182.83,84.75c.38-1.08.91-2.14,1.55-3.09,2.05-3.09,5.69-3.44,8.23-2.53,1.42.51,2.39,1.57,3.11,2.87.82,1.46,1.23,3.05,1.53,4.68.48,2.56.56,5.16.59,7.75,0,.1-.06.2-.12.38h-16.26c-.07-.1-.15-.16-.15-.21.11-3.34.4-6.66,1.5-9.83Z"/>
    <path d="M240.41,78.06v8.29c-.52,0-1.03.03-1.54,0-2.17-.12-4.3.06-6.37.72-3.34,1.09-5.42,3.42-6.49,6.69-.11.33-.11.69-.11,1.04,0,4.19,0,8.39,0,12.59v5.11c0,1.54.27,1.94,1.81,2.2.51.09,1.03.15,1.55.2v1c-4.97,0-9.95,0-14.92,0v-.87c.37-.04.73-.07,1.1-.11.32-.03.63-.07.94-.15,1.25-.32,1.49-.62,1.54-1.89.01-.31.01-.63.01-.94,0-9.66,0-19.32,0-28.97,0-.42,0-.85-.03-1.27-.09-1.12-.52-1.62-1.69-1.76-.74-.08-1.49-.12-2.23-.16v-.75c3.81-.31,11.12-.74,11.84-.67v13.83c.49-.43.56-.88.72-1.26,1.26-3.11,2.85-6.03,5.13-8.54,1.29-1.41,2.75-2.62,4.5-3.43,1.32-.62,2.71-.92,4.26-.88Z"/>
    <path d="M117.43,75.25c2.92.09,5.02-1.89,5.07-4.75.05-2.75-1.93-4.74-4.78-4.82-2.74-.07-4.99,1.94-5,4.63-.01,3.24,2.36,4.86,4.71,4.94Z"/>
    <path d="M124.4,115v.91c-4.98,0-9.96,0-14.92,0v-.86c.43-.04.86-.08,1.29-.13.21-.02.42-.04.63-.07,1.46-.29,1.85-.72,1.85-2.21,0-10.15,0-20.29-.01-30.44,0-1.66-.39-2.11-2.05-2.32-.78-.09-1.56-.13-2.35-.18v-.72c4.08-.22,8.17-.45,12.34-.67.02.38.05.72.05,1.06v32.65c0,.21,0,.42,0,.63.01,1.55.38,1.99,1.92,2.22.41.06.83.1,1.26.14Z"/>
    <path d="M103,78.06h-1.46c-.7-1.92-1.4-3.84-2.15-5.74-.67-1.73-1.41-3.44-2.2-5.13-.38-.82-.89-1.59-1.42-2.33-.87-1.22-2.09-1.94-3.58-1.97-2.81-.06-5.63-.02-8.58-.02-.02.39-.06.76-.06,1.13,0,2.32,0,4.63,0,6.95,0,8.63,0,17.25,0,25.88v17.46c.29.3.76.46,1.48.57.41.06.84.1,1.26.14v.91h-11.35s-3.57,0-3.57,0v-.86c.43-.04.86-.08,1.3-.13.21-.02.43-.03.63-.07.92-.18,1.41-.41,1.65-.93v-17.08c0-5.33,0-10.66,0-15.99,0-.7,0-1.4,0-2.1v-15.91h-4.96c-1.02,0-2.04,0-3.06.01-1.9.03-3.43.82-4.43,2.44-.67,1.1-1.34,2.24-1.82,3.43-1.25,3.1-2.42,6.22-3.62,9.34h-1.48c0-1.22.04-2.43.08-3.64.06-2.07.11-4.14.17-6.21.06-2.03.13-4.05.19-6.13h46.45c.04.21.11.41.12.6.08,2.71.15,5.41.22,8.11.07,2.42.13,4.85.19,7.28Z"/>
    <path d="M152.18,177.32v.96c-3.43,0-6.86,0-10.3,0-.1,0-.2-.05-.38-.1-.02-.29-.05-.59-.05-.89,0-8.75,0-17.49-.02-26.24,0-.98-.07-1.97-.23-2.93-.54-3.1-2.6-4.94-5.77-5.2-4.46-.36-7.64,1.66-9.94,5.3-.21.34-.31.8-.32,1.19-.02,8.54-.02,17.07,0,25.61,0,1.52.43,1.99,1.95,2.22.48.07.98.12,1.46.16v.89c-4.3.01-8.59,0-12.88,0-.68,0-1.37,0-2.05,0v-.89c.35-.03.7-.07,1.05-.1.25-.02.5-.04.73-.09,1.46-.31,1.82-.74,1.82-2.24,0-10.08,0-20.16,0-30.24,0-.18,0-.35-.02-.53-.13-1.25-.58-1.76-1.84-1.9-.64-.07-1.28-.11-1.92-.15v-.83c3.83-.21,7.67-.42,11.62-.64.05,2.23,0,4.43.05,6.83.28-.35.45-.54.61-.74,3.11-4.06,7.12-6.41,12.36-6.34,1.85.03,3.63.42,5.3,1.25,3.42,1.71,5.34,4.48,5.84,8.23.1.8.14,1.61.14,2.41.01,7.24,0,14.47,0,21.7v.63c.01,2.02.37,2.4,2.43,2.63.11.01.22.02.32.03Z"/>
    <path d="M196.96,173.5s0-.04-.02-.06c0-.02-.01-.03-.02-.05-.02-.04-.05-.08-.09-.11-.06-.05-.13-.1-.24-.15h0c-.05.07-.09.14-.14.22-.05.07-.1.15-.15.22-.1.15-.2.3-.32.44-.44.55-.85,1.14-1.37,1.59-.81.69-1.99,1.01-3,.69-.04-.01-.08-.03-.12-.04-.05-.02-.1-.04-.14-.06-.07-.03-.14-.06-.21-.1-.13-.07-.26-.16-.38-.26-.06-.05-.12-.1-.17-.16-.12-.12-.22-.25-.32-.4-.05-.07-.09-.15-.14-.23-.04-.08-.09-.17-.13-.25-.04-.08-.08-.18-.11-.27h0c-.03-.11-.07-.2-.09-.31-.02-.06-.03-.13-.05-.19-.01-.05-.02-.09-.03-.13-.04-.23-.08-.47-.11-.7-.02-.12-.03-.23-.04-.35-.03-.24-.04-.48-.06-.71-.02-.36-.03-.71-.03-1.07,0-2.34,0-4.69,0-7.03s0-4.69,0-7.03c0-1.56,0-3.13,0-4.69,0-.25,0-.51-.01-.76,0-.21-.01-.42-.03-.63,0-.1,0-.19-.02-.29-.01-.2-.03-.4-.05-.61-.03-.26-.06-.5-.1-.75-.03-.15-.05-.29-.08-.43-.03-.14-.06-.28-.09-.41-.03-.14-.06-.27-.1-.41-.04-.15-.09-.3-.13-.45-.03-.09-.06-.17-.09-.26-.02-.05-.03-.1-.06-.15-.03-.1-.07-.2-.11-.3-.11-.25-.22-.49-.34-.73-.03-.05-.06-.11-.09-.17-.03-.06-.06-.12-.1-.17-.06-.12-.13-.23-.2-.34-.05-.07-.1-.15-.15-.22-.03-.05-.07-.11-.11-.17-.06-.09-.13-.17-.19-.26-.08-.1-.16-.2-.25-.31-.06-.07-.12-.14-.19-.21-.09-.1-.18-.2-.27-.29-.12-.12-.24-.24-.36-.35-.29-.26-.59-.51-.92-.73-.17-.12-.34-.22-.51-.33-.35-.22-.72-.41-1.11-.59-.86-.4-1.77-.71-2.68-.94-3.15-.78-6.35-.81-9.55-.35-.26.04-.53.08-.79.13-.23.04-.46.09-.7.14-.02,0-.04.01-.07.02h0c-.25.06-.49.12-.73.19,0,0-.02,0-.03,0-.22.06-.45.13-.67.2-.16.05-.31.1-.45.16-.22.08-.43.16-.64.25-.43.17-.84.36-1.25.59-.2.1-.41.22-.61.34-.55.32-1.06.69-1.53,1.08-.09.07-.17.15-.26.22-.08.07-.17.16-.25.23h0c-.11.11-.21.21-.32.32-.13.13-.26.28-.38.42-.06.06-.12.14-.17.21-.03.04-.07.1-.11.15-.04.04-.08.09-.11.14-.1.12-.18.25-.26.38-.07.1-.14.2-.2.32-.05.08-.09.16-.14.24,0,0,0,0,0,0-.05.08-.09.16-.13.25-.06.1-.11.21-.16.31-.06.14-.13.28-.19.42-.06.15-.12.29-.17.45-.06.15-.11.3-.15.45-.06.22-.13.44-.18.66-.03.14-.06.29-.09.43-.03.13-.05.27-.06.4,0,.02,0,.04-.01.07-.01.14-.03.28-.04.42,0,.11-.01.21-.01.31v.09c0,.18,0,.36.02.54h0c.01.19.03.36.06.54h0c1.27.12,2.53.24,3.79.36.69.06,1.37.13,2.06.19.58.06,1.16.11,1.74.17h0c.04-.26.06-.38.07-.51,0-.15,0-.3.01-.45,0-.59.02-1.19.04-1.79.02-.45.04-.89.08-1.33.03-.36.08-.72.13-1.08.07-.35.13-.7.23-1.05.09-.35.2-.69.33-1.02.13-.33.28-.67.45-.99.04-.08.08-.16.13-.23,0,0,0,0,0,0,0-.02.01-.03.03-.04,0,0,0-.01,0-.02,0-.02.01-.03.02-.04.05-.08.09-.15.14-.23,0,0,.01-.02.02-.03.08-.13.17-.25.26-.38.05-.07.1-.14.16-.21.01-.03.03-.05.05-.07.09-.11.19-.22.29-.32.07-.07.15-.15.22-.22.08-.07.15-.14.23-.2.08-.06.16-.13.24-.19.09-.06.17-.12.25-.18.09-.05.17-.1.26-.16h0c.18-.1.37-.19.57-.26.13-.05.26-.1.39-.13.16-.05.32-.09.49-.12.03,0,.05,0,.07-.01.66-.12,1.33-.18,2.01-.17.2,0,.4,0,.59.02.13,0,.27.02.4.03.03,0,.05,0,.08,0,.05,0,.11.01.16.02.08,0,.16.01.24.03.08,0,.15.02.23.04,0,0,.02,0,.03,0,.14.03.28.06.41.1,0,0,.02,0,.03.01.07.02.14.04.21.07.07.02.14.05.21.07.04.02.09.03.13.06,0,0,.02,0,.03,0h0c.08.04.16.07.23.12.1.05.2.11.29.17.2.12.38.26.55.41.08.07.16.16.24.23.07.07.13.15.2.22.19.23.37.48.52.76.05.09.1.18.14.28.14.29.25.6.35.92.04.13.07.26.12.4.03.13.06.27.1.4.03.13.06.26.08.38.01.06.02.12.03.18.02.09.03.18.05.26.02.12.04.23.06.35,0,.05,0,.09.01.13.02.16.04.32.06.48.01.12.03.24.03.36,0,.13.01.25.02.37.09,2.52.04,5.06.05,7.58,0,.09,0,.17-.02.26,0,.09-.03.19-.03.29l-.29.09c-.1.03-.19.06-.28.09-.1.03-.18.06-.28.08-.09.03-.19.05-.28.08-4.13,1.05-8.25,2.08-12.38,3.16-.23.06-.46.13-.69.19-.06.02-.12.04-.18.05-.23.07-.45.14-.67.22-.01,0-.03,0-.05.02-.19.06-.37.13-.56.2-.03,0-.06.02-.09.03-.05.01-.1.03-.15.06-.22.08-.44.17-.66.27-.13.06-.25.11-.36.16-.12.06-.24.12-.36.18-.12.06-.24.11-.35.18-.24.13-.47.26-.7.41-.23.14-.45.29-.67.45-.05.04-.11.08-.16.12-.06.04-.11.08-.16.12-.23.17-.45.35-.65.54h0c-.1.1-.2.19-.29.29-.14.14-.28.29-.4.44-.06.06-.11.13-.16.19-.06.06-.11.13-.16.2-.05.07-.1.13-.15.21-.05.06-.09.13-.14.21-.09.13-.16.26-.24.41,0,0-.01.03-.02.03-.02.03-.03.05-.03.07-.05.09-.09.18-.14.26-.05.12-.11.25-.16.37-.01.03-.03.07-.04.1,0,0,0,0,0,.02-.04.09-.07.19-.1.29,0,.01-.01.03-.02.04,0,.02,0,.03-.01.05-.05.13-.08.27-.12.41-.02.08-.04.15-.06.22-.01.08-.03.15-.04.23-.02.1-.04.2-.05.31-.01.07-.02.13-.03.21-.02.14-.03.28-.04.42-.06,1.05-.09,2.12.06,3.15.03.21.07.42.12.63,0,.03,0,.06.01.09.04.19.09.37.13.55.02.06.03.13.06.2.05.17.1.35.16.52.06.19.13.38.21.57.01.03.03.07.04.1,0,.02.02.03.02.05.06.16.13.32.21.47.19.38.4.75.63,1.09.06.09.13.18.2.27.01.02.03.03.04.06t0,0s.03.04.05.06c.04.06.09.12.13.17.09.11.18.22.28.32.04.05.09.11.14.16.05.05.1.1.15.15.07.08.14.15.22.22.08.08.17.15.26.22.01,0,.03.02.04.03.02,0,.03.03.04.03.04.03.07.06.1.08.03.03.07.06.1.09h0s.02.02.03.03c.1.07.2.15.3.22.02,0,.03.02.05.03.04.03.09.06.14.1.02,0,.03.02.04.03.11.08.22.15.34.21,0,0,0,0,0,0,.01,0,.02,0,.03.01.05.03.09.06.14.08.02,0,.04.02.06.03.08.05.17.1.25.13l.05.03s0,0,.01,0c.08.04.17.09.26.13,0,0,0,0,.01,0,.15.07.31.15.47.21.02,0,.03.01.05.02.13.06.26.11.41.15t0,0s.06.03.1.03c0,0,.02,0,.02,0,.03.02.07.03.11.04,3.39,1.15,6.73.87,9.91-.85,2.27-1.23,4.08-2.97,5.59-5.05.2-.28.32-.68.8-.77.02.48.04.9.08,1.32.22,2.64,1.9,4.88,4.43,5.61.08.02.17.05.26.07.09.02.18.04.27.06.18.04.36.07.55.1.06,0,.13.02.19.03.06,0,.13.02.2.03.13.01.25.02.38.03.19.01.38.02.57.03.18,0,.35,0,.52,0s.33,0,.49,0c.15,0,.3-.01.45-.03.11,0,.22-.02.33-.03.22-.03.43-.06.64-.1.1-.02.21-.04.31-.06.14-.03.27-.07.4-.11.01,0,.03,0,.03,0,.48-.14.94-.33,1.37-.57.03-.02.06-.03.1-.05.12-.06.23-.14.35-.21.11-.07.22-.14.33-.22.05-.03.1-.06.14-.1.04-.03.09-.06.13-.1.29-.22.57-.47.83-.73.13-.13.25-.26.38-.41.26-.29.49-.61.71-.94.11-.16.22-.34.32-.51.09-.16.17-.32.25-.48h0s.03-.06.05-.09c0,0,0-.03.02-.03.08-.16.16-.32.23-.49.03-.06.05-.11.06-.16.03-.08.03-.16.02-.22ZM180.84,171.47c-.77,1.1-1.67,2.08-2.76,2.87-1.78,1.29-3.73,1.75-5.89,1.27-1.29-.29-2.31-1-3.07-2.07-.64-.9-1.06-1.89-1.27-2.97-.32-1.7-.46-3.4-.23-5.13.25-2,1.17-3.57,2.82-4.73,1.48-1.04,3.16-1.69,4.87-2.22,1.85-.56,3.73-1.05,5.59-1.56.13-.04.26-.03.51-.06v1.08c0,3.93,0,7.86.01,11.79,0,.67-.18,1.21-.57,1.75Z"/>
    <path d="M215.4,177.38v.89c-4.98.01-9.95.01-14.93,0v-.86c.42-.04.84-.08,1.26-.13.42-.05.83-.13,1.23-.25.68-.2,1.06-.66,1.09-1.38.01-.35.02-.7.02-1.05,0-15.48,0-30.97,0-46.46,0-.42,0-.84-.03-1.26-.04-.76-.43-1.27-1.16-1.44-.57-.14-1.17-.22-1.76-.26-.38-.03-.77-.05-1.15-.07v-.79c.45-.02.89-.05,1.34-.07,3.23-.17,6.47-.33,9.71-.5.32-.01.62,0,1.04,0,.03.32.07.62.07.92,0,16.05-.02,32.09-.02,48.14,0,.8,0,1.61.02,2.42.05,1.3.32,1.69,1.62,1.95.54.11,1.1.17,1.66.23Z"/>
    <path d="M271.33,147.47c0,8.82-.02,13.33.02,22.14,0,1.11.2,2.25.52,3.31.59,1.91,2.01,2.88,3.99,3.09,2.77.3,4.79-.81,6.13-3.2.32-.58.57-1.21.86-1.81.14-.3.29-.6.45-.95.52.23.53.47.42.78-.59,1.7-1.27,3.35-2.38,4.79-1.41,1.84-3.25,2.99-5.54,3.38-1.86.32-3.73.32-5.57-.13-3.21-.79-5.27-2.84-6.27-5.96-.51-1.59-.68-3.22-.68-4.88,0-8.12,0-16.23,0-24.34v-1.33c-.44-.03-.77-.07-1.12-.07-.92,0-1.84,0-2.76,0v-.9c.48,0,3.4-.01,3.89,0l.95-13.13c.76-.32,6.01-.35,7.07-.03v13.17h6.14v.91c-2.18.58-3.65.95-6.14,1.52v3.65Z"/>
    <path d="M373.54,166.16c-.28-3.26-1.87-5.7-4.65-7.35-1.17-.69-2.42-1.32-3.71-1.75-2.44-.8-4.93-1.45-7.4-2.15-1.63-.46-3.24-.98-4.69-1.87-1.13-.69-2.12-1.55-2.56-2.84-1.05-3.05.18-6.3,2.95-7.78,1.53-.81,3.18-1.08,4.91-.91,2.78.28,5.1,1.53,7.09,3.42,2.22,2.11,3.83,4.66,5.25,7.34.18.34.35.69.54,1.03.15.27.36.43.81.17-.26-4.1-.52-8.26-.79-12.42,0-.15-.15-.29-.28-.54-1.35.71-2.01,2.09-3.16,2.9-.09-.03-.17-.03-.22-.07-2.26-1.72-4.88-2.46-7.67-2.68-3.4-.26-6.57.37-9.46,2.29-5.88,3.91-6.69,13.68.62,17.53,1.82.96,3.73,1.65,5.7,2.19,2.41.67,4.82,1.33,7.19,2.11,1.12.37,2.19.97,3.2,1.58.99.6,1.7,1.51,1.99,2.63,1.09,4.2-.99,7.89-5.1,8.83-3.55.81-6.77-.06-9.66-2.23-1.73-1.3-3.17-2.9-4.37-4.69-1.11-1.67-2.08-3.42-3.13-5.13-.2-.34-.29-.82-.85-.78-.25.89.51,12.67.92,13.8.33-.21.67-.37.94-.61.72-.62,1.4-1.29,2.1-1.92.2-.18.44-.32.64-.46.19.11.31.18.43.26,4.34,2.85,9.08,3.52,14.06,2.39,3.33-.75,5.84-2.72,7.31-5.86.96-2.05,1.23-4.22,1.04-6.47Z"/>
    <path d="M331.89,141.24c-2.94-.94-5.97-1.12-8.98-.51-6.87,1.37-11.4,5.55-13.93,11.94-1.46,3.68-1.68,7.53-1.02,11.41.67,3.95,2.38,7.43,5.3,10.21,4.51,4.29,9.97,5.7,16.02,4.6,4.57-.83,7.95-3.42,9.96-7.78-.63-.43-.81,0-1.04.35-2.11,3.35-5.07,5.32-9.09,5.48-4.72.2-8.36-1.61-10.6-5.88-1.35-2.57-1.92-5.35-2.11-8.2-.25-3.62-.18-7.23.41-10.82.41-2.51,1.05-4.95,2.43-7.13,1.45-2.28,3.48-3.62,6.22-3.82,2.41-.18,4.19.8,5.22,2.97.21.44.42.9.5,1.38.26,1.52.5,3.04.66,4.57.09.89.02,1.81.02,2.86,2.68-.44,5.2-.86,7.64-1.26.06-.22.1-.29.1-.35-.25-4.86-3.05-8.52-7.71-10.01Z"/>
    <g>
      <path d="M295.71,137.62c2.92.09,5.02-1.89,5.07-4.75.05-2.75-1.93-4.74-4.78-4.82-2.74-.07-4.99,1.94-5,4.63-.01,3.24,2.36,4.86,4.71,4.94Z"/>
      <path d="M302.68,177.37v.91c-4.98,0-9.96,0-14.92,0v-.86c.43-.04.86-.08,1.29-.13.21-.02.42-.04.63-.07,1.46-.29,1.85-.72,1.85-2.21,0-10.15,0-20.29,0-30.44,0-1.66-.39-2.11-2.05-2.32-.78-.09-1.56-.13-2.35-.18v-.72c4.08-.23,8.17-.45,12.34-.67.02.38.05.72.05,1.06v32.65c0,.21,0,.42,0,.63.01,1.55.38,1.99,1.92,2.22.41.06.83.1,1.26.14Z"/>
    </g>
    <g>
      <path d="M61,174.85s0-.01.01-.02c1.07-1.55,2.35-3.16,3.9-4.71.65-.66,1.37-1.3,2.11-1.93l13.31-32.14,8.05,21.64c.63-.04,1.24-.12,1.86-.25,2.15-.45,4.63-1.24,6.48-2.1-3.59-9.09-7.17-18.17-10.76-27.25-.58-1.46-1.17-2.92-1.75-4.38h-2.52c-.12.25-.22.46-.31.68-3.78,9.37-7.55,18.73-11.33,28.1-.58,1.46-1.18,2.92-1.76,4.37-.09.22-.17.43-.26.65-.84,2.07-2.95,6.86-4.97,11.41-1.73,3.89-3.39,7.6-4.16,9.35.01-.02.02-.04.03-.06.43-.8.93-1.64,1.5-2.52.19-.28.38-.56.56-.84Z"/>
      <path d="M104.46,174.68c-.31-.63-.59-1.27-.85-1.93-1.3-3.29-2.6-6.59-3.9-9.88-.15.1-.3.2-.45.3-2.13,1.38-4.62,2.47-7.58,3.33l2.83,7.6c.15.39.29.79.37,1.21.14.75-.09,1.24-.82,1.51-.54.22-1.14.37-1.72.44h0v1c4.98,0,9.94,0,14.92,0v-1.2c-1.22-.39-2.17-1.16-2.78-2.39Z"/>
      <path class="st0" d="M96.63,157.68c-2.21.78-4.92,1.5-8.41,2.25-1.89.41-4.01.83-6.39,1.28-6.3,1.18-11.12,3.86-14.8,6.98-.75.63-1.46,1.27-2.11,1.93-1.55,1.56-2.83,3.16-3.9,4.71,0,0,0,.01-.01.02-.18.28-.37.56-.56.84-.57.88-1.07,1.72-1.5,2.52-.46.85-.85,1.64-1.17,2.35-.93,2.06-1.31,3.42-1.31,3.42,0,0,.95-1.4,2.69-3.42,1.38-1.61,3.26-3.61,5.56-5.61,4.47-3.9,10.51-7.8,17.46-8.74,3.03-.41,5.61-.9,7.84-1.49,3.35-.88,5.92-1.98,8.07-3.37,5.08-3.28,7.82-8.18,12.82-15.57-5.38,6.44-7.36,9.45-14.28,11.89Z"/>
      <path class="st1" d="M61,174.85c-.18.28-.37.56-.56.84-.57.88-1.07,1.72-1.5,2.52.43-.8.93-1.64,1.5-2.52.19-.28.38-.56.56-.84Z"/>
    </g>
    <path d="M244.56,141.39v.8s0,0,.01,0h0c2.06.55,3.57,2.42,3.57,4.65,0,.59-.09,1.16-.29,1.68l-7.72,19.53c-2.75-6.48-5.49-12.97-8.23-19.46l-.03-.07c-.34-.79-.67-1.57-1-2.36-.11-.27-.22-.54-.32-.83l-1.63-3.95c-3.82,0-7.64,0-11.45,0v.64c1.71.18,2.99.93,3.63,2.6.11.3.27.57.41.86,4.91,10.42,9.81,20.84,14.71,31.27.08.18.17.35.27.53l-3.34,8.44c-.68,1.82-2.45,3.11-4.51,3.12-.01,0-.03,0-.04,0-.05,0-.09,0-.14,0-1.79-.13-3.4-.81-4.92-1.78-.29-.18-.57-.37-.98-.62-.48,2.23-.93,4.34-1.4,6.56.95.23,1.78.48,2.64.62,3.86.65,7.15-.34,9.51-3.58.82-1.14,1.53-2.36,2.12-3.63.81-1.72,1.45-3.5,2.15-5.27.25-.63.5-1.27.76-1.9l12.86-31.75c.35-.66.71-1.32,1.08-1.97.81-1.4,1.95-2.41,3.39-3v-1.14c-3.7,0-7.4,0-11.11,0Z"/>
  </g>
  <g>
    <path d="M383.95,142.12h-2.82v-1.59h7.41v1.59h-2.82v7.9h-1.77v-7.9Z"/>
    <path d="M389.6,140.53h2.22l2.76,7.09,2.76-7.09h2.22v9.49h-1.77v-6.37h-.07l-2.47,6.37h-1.35l-2.48-6.37h-.05v6.37h-1.78v-9.49Z"/>
  </g>
</svg>